<svg width="37" height="33" viewBox="0 0 37 33" fill="none" xmlns="http://www.w3.org/2000/svg">
<g clip-path="url(#clip0_72_172)">
<path d="M18.5 0C8.28337 0 0 7.38788 0 16.5C0 25.6121 8.28337 33 18.5 33C28.7166 33 37 25.6121 37 16.5C37 7.38788 28.7166 0 18.5 0ZM18.5 30.25C13.6854 30.25 9.38258 28.2686 6.55362 25.1762C6.95292 24.3678 7.76075 23.8081 9.43192 23.463C12.8914 22.7507 16.3062 22.1141 14.6628 19.4136C9.79883 11.4111 13.2768 6.875 18.5 6.875C23.6214 6.875 27.1857 11.2434 22.3372 19.4136C20.7416 22.0976 24.033 22.7356 27.5681 23.463C29.2362 23.8067 30.0502 24.3636 30.4525 25.1694C27.622 28.2673 23.3177 30.25 18.5 30.25Z" 
fill="white"/>
</g>
<defs>
<clipPath id="clip0_72_172">
<rect width="37" height="33" fill="white"/>
</clipPath>
</defs>
</svg>
