<svg width="37" height="33" viewBox="0 0 37 33" fill="none" xmlns="http://www.w3.org/2000/svg">
<path d="M0.578125 0.257812V32.4844H36.7109V0.257812H0.578125ZM19.6906 27.7182C19.1573 28.6847 18.1392 29.3197 16.9596 29.6263C15.1469 29.9975 13.4131 29.7859 12.1233 29.0954C11.2601 28.6231 10.586 27.8961 10.1285 27.0585L12.8803 25.5554C12.9043 25.5644 12.9766 25.681 13.0731 25.8315C13.4241 26.3559 13.7267 26.7272 14.3216 26.9878C14.9061 27.1657 16.1892 27.2794 16.6847 26.3621C16.9873 25.8955 16.8911 24.3955 16.8911 22.736C16.8908 20.1282 16.9044 17.5312 16.9044 14.9531H20.289C20.289 17.7891 20.3064 20.475 20.289 23.2423C20.2962 24.9387 20.4613 26.451 19.6906 27.7182ZM33.7316 26.8654C32.5551 30.4546 25.9957 30.5711 23.3745 28.1998C22.8206 27.6416 22.4735 27.35 22.1431 26.7058C23.536 25.9911 23.536 25.9911 24.8915 25.2917C25.6277 26.301 26.3084 26.8561 27.5332 27.0832C29.1947 27.2642 30.8664 26.755 30.4915 25.1811C30.1061 23.8956 27.0892 23.5829 25.036 22.2082C22.9516 20.9596 22.463 17.9257 24.176 16.1922C24.7469 15.551 25.7205 15.0725 26.742 14.8425L27.8081 14.7195C29.855 14.6827 31.1343 15.1648 32.0735 16.1001C32.3348 16.3363 32.5481 16.591 32.9471 17.143C31.8567 17.7628 31.8602 17.7568 30.2984 18.6587C29.9648 18.0177 29.4112 17.6156 28.8262 17.4408C27.9179 17.1953 26.7727 17.4622 26.5351 18.3181C26.4527 18.5818 26.4697 18.8273 26.6007 19.263C26.9687 20.0114 28.2035 20.3368 29.3112 20.7908C32.4999 21.9442 33.5766 23.181 33.8414 24.6531C34.0964 25.9205 33.7798 26.7426 33.7316 26.8654Z" fill="black"/>
</svg>
