<svg width="37" height="33" viewBox="0 0 37 33" fill="none" xmlns="http://www.w3.org/2000/svg">
<path d="M33.8053 25.2158C31.8214 25.1676 30.3065 25.3324 29.0112 25.8194C28.6432 25.9578 28.0558 25.9617 27.9957 26.3729C28.198 26.5619 28.2296 26.8444 28.3903 27.077C28.6996 27.523 29.2216 28.1216 29.6876 28.4351C30.1969 28.778 30.7216 29.1444 31.2673 29.4411C32.238 29.9689 33.3217 30.2705 34.2562 30.7993C34.8072 31.1112 35.3544 31.5039 35.8917 31.8555C36.1577 32.0296 36.336 32.3 36.6815 32.4091V32.359C36.4999 32.1528 36.4531 31.8697 36.2866 31.6544L35.5532 31.0004C34.8364 30.1517 33.9261 29.4061 32.9586 28.7871C32.1871 28.2931 30.4605 27.6259 30.1388 26.8254L30.0824 26.7751C30.6294 26.7199 31.2696 26.5436 31.7746 26.4227C32.6227 26.22 33.3806 26.2724 34.2562 26.0707L35.4405 25.7688V25.5678C34.998 25.1627 34.6823 24.6265 34.1999 24.2599C32.9366 23.3008 31.5584 22.3425 30.1391 21.5433C29.3517 21.1004 28.379 20.8124 27.5445 20.4368C27.2638 20.3102 26.7707 20.2444 26.5854 20.0341C26.1469 19.536 25.9084 18.9043 25.5705 18.324C24.8626 17.1079 24.1674 15.7799 23.5401 14.5004C23.1123 13.6279 22.8328 12.7679 22.2991 11.9852C19.7381 8.2296 16.9816 5.96317 12.7112 3.73516C11.8024 3.2613 10.7083 3.07438 9.55207 2.82946C8.93203 2.7962 8.31141 2.76243 7.69109 2.72866C7.31213 2.58789 6.91842 2.17462 6.56316 1.97404C5.14849 1.17688 1.5196 -0.556905 0.47204 1.72267C-0.189624 3.16152 1.46092 4.56506 2.0509 5.29441C2.46542 5.80539 2.99584 6.37902 3.29184 6.9542C3.48667 7.33242 3.5202 7.71166 3.68699 8.11152C4.09659 9.09688 4.45359 10.1689 4.98402 11.0792C5.25198 11.5402 5.5474 12.0254 5.88647 12.4374C6.09402 12.6903 6.45043 12.8016 6.50651 13.192C6.15848 13.6266 6.13853 14.3016 5.94284 14.8523C5.0612 17.3312 5.39391 20.4125 6.67619 22.2471C7.06931 22.8107 7.99634 24.0186 9.27052 23.555C10.3851 23.1502 10.1363 21.8952 10.4551 20.7882C10.5271 20.5373 10.4829 20.3527 10.6242 20.1846V20.2349L11.6397 22.0458C12.3912 23.1252 13.7244 24.2532 14.8546 25.0142C15.4406 25.4089 15.9019 26.0911 16.6595 26.3221V26.2716H16.6032C16.4563 26.0676 16.2265 25.9831 16.0392 25.8191C15.5978 25.4332 15.107 24.9534 14.7422 24.5112C13.7143 23.2668 12.806 21.9048 11.9785 20.487C11.583 19.8098 11.2393 19.0631 10.9063 18.374C10.778 18.1085 10.7797 17.7065 10.512 17.5691C10.147 18.0739 9.6096 18.4823 9.32747 19.0784C8.87624 20.0312 8.81814 21.1934 8.65077 22.3985C8.55192 22.4299 8.59585 22.4083 8.53775 22.4485C7.75208 22.2796 7.47631 21.5585 7.18407 20.9395C6.44581 19.3746 6.3085 16.8552 6.95831 15.0539C7.12655 14.5875 7.8862 13.12 7.57864 12.6892C7.4318 12.2597 6.94733 12.0112 6.67648 11.683C6.34088 11.2772 6.00614 10.743 5.77345 10.2743C5.16931 9.0546 4.88718 7.68484 4.25095 6.45147C3.94657 5.86185 3.43233 5.26502 3.01001 4.74114C2.54259 4.16029 2.01881 3.73258 1.65633 3.03056C1.52741 2.78099 1.35252 2.38138 1.54331 2.12486C1.60401 1.95187 1.69015 1.87968 1.8818 1.82322C2.20902 1.59815 3.12014 1.89799 3.46066 2.02406C4.36513 2.35921 5.12016 2.67838 5.88647 3.1311C6.25387 3.3487 6.62618 3.76919 7.07076 3.88572H7.57835C8.37241 4.0484 9.26185 3.93599 10.0039 4.13709C11.3151 4.49235 12.4901 5.04536 13.557 5.64632C16.8078 7.47731 19.466 10.0833 21.2843 13.1922C21.5768 13.6929 21.7034 14.1704 21.9609 14.7015C22.4807 15.7722 23.1354 16.8738 23.6525 17.921C24.1688 18.9657 24.6718 20.0199 25.4014 20.8892C25.785 21.3461 27.2661 21.5913 27.9396 21.8452C28.4114 22.0228 29.1846 22.2085 29.6318 22.4485C30.4854 22.9079 31.3127 23.4547 32.1137 23.958C32.5135 24.2093 33.744 24.7613 33.8053 25.2158ZM8.59354 6.0498C8.17989 6.04284 7.88736 6.09002 7.57806 6.15009V6.20036H7.63443C7.83186 6.56181 8.18018 6.79488 8.42386 7.10606C8.61175 7.45849 8.79993 7.8104 8.98811 8.16231L9.04419 8.11256C9.39366 7.89264 9.55352 7.54176 9.55149 7.00551C9.41159 6.87428 9.39106 6.7098 9.26966 6.55305C9.10894 6.34396 8.79704 6.22511 8.59354 6.0498Z" fill="black"/>
</svg>
