<svg width="35" height="33" viewBox="0 0 35 33" fill="none" xmlns="http://www.w3.org/2000/svg">
<path d="M13.2595 15.9844H21.6882C24.0345 15.9844 25.8828 14.2137 25.8828 12.1123V4.9456C25.8828 2.90579 23.9657 1.37335 21.6755 1.03304C20.2261 0.817765 18.7285 0.719796 17.2855 0.725983C15.8431 0.731913 14.507 0.841483 13.295 1.03304C9.72364 1.59533 9.11718 2.77353 9.11718 4.9456V7.73436H17.5V8.76561H5.87275C3.42034 8.76561 1.27261 10.0825 0.601114 12.5841C-0.173863 15.4509 -0.208261 17.2038 0.601114 20.1973C1.20092 22.4253 2.63322 23.9765 5.08592 23.9765H7.96093V20.6126C7.96093 18.1281 10.3972 15.9844 13.2595 15.9844ZM12.7282 5.90131C11.8534 5.90131 11.1447 5.26219 11.1447 4.47174C11.1447 3.67794 11.8532 3.03289 12.7282 3.03289C13.5997 3.03289 14.3119 3.67794 14.3119 4.47174C14.3116 5.26219 13.5994 5.90131 12.7282 5.90131ZM34.3468 12.5841C33.7404 10.4061 32.5827 8.76561 30.1268 8.76561H27.0391V12.1123C27.0391 14.7033 24.497 16.7578 21.6882 16.7578H13.2595C10.9504 16.7578 9.11718 18.6465 9.11718 20.709V27.8762C9.11718 29.9155 11.0669 31.1154 13.2976 31.7006C15.9691 32.4011 18.499 32.5277 21.6952 31.7006C23.8195 31.1517 25.8828 30.0478 25.8828 27.8762V25.0078H17.5V23.9765H30.1268C32.5792 23.9765 33.4935 22.4874 34.3468 20.197C35.2276 17.8393 35.1898 15.6082 34.3468 12.5841ZM22.2192 26.92C23.0942 26.92 23.803 27.5591 23.803 28.3501C23.803 29.1431 23.0945 29.7884 22.2192 29.7884C21.3477 29.7884 20.6357 29.1434 20.6357 28.3501C20.6357 27.5591 21.3477 26.92 22.2192 26.92Z" fill="black"/>
</svg>
